<?xml version="1.0"?>
<!-- Generated by SVGo -->
<svg width="1000" height="1000"
     xmlns="http://www.w3.org/2000/svg"
     xmlns:xlink="http://www.w3.org/1999/xlink">
<circle cx="280" cy="750" r="2" />
<text x="280" y="750" style="text-anchor:middle;font-size:50px;fill:red">0</text>
<circle cx="270" cy="310" r="2" />
<text x="270" y="310" style="text-anchor:middle;font-size:50px;fill:red">2</text>
<line x1="280" y1="750" x2="270" y2="310" style="stroke:#006600;"/>
<circle cx="260" cy="170" r="2" />
<text x="260" y="170" style="text-anchor:middle;font-size:50px;fill:red">9</text>
<line x1="270" y1="310" x2="260" y2="170" style="stroke:#006600;"/>
<circle cx="490" cy="500" r="2" />
<text x="490" y="500" style="text-anchor:middle;font-size:50px;fill:red">8</text>
<line x1="260" y1="170" x2="490" y2="500" style="stroke:#006600;"/>
<circle cx="600" cy="870" r="2" />
<text x="600" y="870" style="text-anchor:middle;font-size:50px;fill:red">5</text>
<line x1="490" y1="500" x2="600" y2="870" style="stroke:#006600;"/>
<circle cx="490" cy="630" r="2" />
<text x="490" y="630" style="text-anchor:middle;font-size:50px;fill:red">4</text>
<line x1="600" y1="870" x2="490" y2="630" style="stroke:#006600;"/>
<circle cx="320" cy="560" r="2" />
<text x="320" y="560" style="text-anchor:middle;font-size:50px;fill:red">3</text>
<line x1="490" y1="630" x2="320" y2="560" style="stroke:#006600;"/>
<circle cx="50" cy="750" r="2" />
<text x="50" y="750" style="text-anchor:middle;font-size:50px;fill:red">6</text>
<line x1="320" y1="560" x2="50" y2="750" style="stroke:#006600;"/>
<circle cx="190" cy="770" r="2" />
<text x="190" y="770" style="text-anchor:middle;font-size:50px;fill:red">7</text>
<line x1="50" y1="750" x2="190" y2="770" style="stroke:#006600;"/>
<circle cx="290" cy="790" r="2" />
<text x="290" y="790" style="text-anchor:middle;font-size:50px;fill:red">1</text>
<line x1="190" y1="770" x2="290" y2="790" style="stroke:#006600;"/>
</svg>
