<?xml version="1.0"?>
<!-- Generated by SVGo -->
<svg width="1000" height="1000"
     xmlns="http://www.w3.org/2000/svg"
     xmlns:xlink="http://www.w3.org/1999/xlink">
<circle cx="810" cy="870" r="2" />
<text x="810" y="870" style="text-anchor:middle;font-size:50px;fill:red">0</text>
<line x1="0" y1="0" x2="810" y2="870" style="stroke:#006600;"/>
<circle cx="470" cy="590" r="2" />
<text x="470" y="590" style="text-anchor:middle;font-size:50px;fill:red">1</text>
<line x1="810" y1="870" x2="470" y2="590" style="stroke:#006600;"/>
<circle cx="810" cy="180" r="2" />
<text x="810" y="180" style="text-anchor:middle;font-size:50px;fill:red">2</text>
<line x1="470" y1="590" x2="810" y2="180" style="stroke:#006600;"/>
<circle cx="250" cy="400" r="2" />
<text x="250" y="400" style="text-anchor:middle;font-size:50px;fill:red">3</text>
<line x1="810" y1="180" x2="250" y2="400" style="stroke:#006600;"/>
<circle cx="560" cy="0" r="2" />
<text x="560" y="0" style="text-anchor:middle;font-size:50px;fill:red">4</text>
<line x1="250" y1="400" x2="560" y2="0" style="stroke:#006600;"/>
<circle cx="940" cy="110" r="2" />
<text x="940" y="110" style="text-anchor:middle;font-size:50px;fill:red">5</text>
<line x1="560" y1="0" x2="940" y2="110" style="stroke:#006600;"/>
<circle cx="620" cy="890" r="2" />
<text x="620" y="890" style="text-anchor:middle;font-size:50px;fill:red">6</text>
<line x1="940" y1="110" x2="620" y2="890" style="stroke:#006600;"/>
<circle cx="280" cy="740" r="2" />
<text x="280" y="740" style="text-anchor:middle;font-size:50px;fill:red">7</text>
<line x1="620" y1="890" x2="280" y2="740" style="stroke:#006600;"/>
<circle cx="110" cy="450" r="2" />
<text x="110" y="450" style="text-anchor:middle;font-size:50px;fill:red">8</text>
<line x1="280" y1="740" x2="110" y2="450" style="stroke:#006600;"/>
<circle cx="370" cy="60" r="2" />
<text x="370" y="60" style="text-anchor:middle;font-size:50px;fill:red">9</text>
<line x1="110" y1="450" x2="370" y2="60" style="stroke:#006600;"/>
</svg>
